<svg width="300" height="298" viewBox="0 0 300 298" fill="none" xmlns="http://www.w3.org/2000/svg">
<circle cx="150" cy="149" r="115" fill="url(#paint0_linear_162_16)"/>
<g filter="url(#filter0_d_162_16)">
<path d="M232 148.5C232 194.063 193.534 231 149.227 231C104.919 231 69 194.063 69 148.5C69 102.937 104.919 66 149.227 66C193.534 66 232 102.937 232 148.5Z" fill="#D9D9D9"/>
</g>
<g filter="url(#filter1_i_162_16)">
<path d="M213 148.5C213 183.57 183.502 212 149.523 212C115.545 212 88 183.57 88 148.5C88 113.43 115.545 85 149.523 85C183.502 85 213 113.43 213 148.5Z" fill="#6B5642"/>
</g>
<path d="M160 143.269L200.741 122.769L210 111L220 137.954L205.185 135.296L162.593 152L160 143.269Z" fill="#D9D9D9"/>
<path d="M96.5342 107L107.714 120.875L142 141.125L136.738 152L100.261 131.75H82L96.5342 107Z" fill="#D9D9D9"/>
<path d="M143.594 162H154.464L151.203 204.375L157 219L132 216L140.696 204.375L143.594 162Z" fill="#D9D9D9"/>
<g filter="url(#filter2_d_162_16)">
<path d="M169 148.5C169 158.717 160.269 167 150.211 167C140.153 167 132 158.717 132 148.5C132 138.283 140.153 130 150.211 130C160.269 130 169 138.283 169 148.5Z" fill="#D9D9D9"/>
</g>
<g filter="url(#filter3_d_162_16)">
<path d="M232 148.5C232 194.063 193.534 231 149.227 231C104.919 231 69 194.063 69 148.5C69 102.937 104.919 66 149.227 66C193.534 66 232 102.937 232 148.5Z" fill="url(#paint1_linear_162_16)" fill-opacity="0.4" shape-rendering="crispEdges"/>
</g>
<g filter="url(#filter4_f_162_16)">
<path d="M146.435 157.072C150.926 161.563 161.886 155.056 157.395 159.547C152.904 164.038 145.623 164.038 141.132 159.547C136.641 155.056 136.641 147.775 141.132 143.284C145.623 138.793 141.944 152.581 146.435 157.072Z" fill="#D9D9D9"/>
</g>
<g filter="url(#filter5_f_162_16)">
<path d="M86.981 188.271C94.981 202.271 126.766 216.271 120.266 220C113.766 223.729 85.7655 198.271 80.7655 182.771C75.7655 167.271 68.0252 151 75.481 151C77.7655 159 82.2655 175.5 86.981 188.271Z" fill="white"/>
</g>
<g filter="url(#filter6_d_162_16)">
<circle cx="152.5" cy="248.5" r="5.5" fill="#A38C68"/>
</g>
<g filter="url(#filter7_d_162_16)">
<circle cx="220.5" cy="217.5" r="5.5" fill="#A38C68"/>
</g>
<g filter="url(#filter8_d_162_16)">
<circle cx="152.5" cy="48.5" r="5.5" fill="#8D7754"/>
</g>
<g filter="url(#filter9_d_162_16)">
<circle cx="248.5" cy="148.5" r="5.5" fill="#86704E"/>
</g>
<g filter="url(#filter10_d_162_16)">
<circle cx="77.5" cy="217.5" r="5.5" fill="#AAA07E"/>
</g>
<g filter="url(#filter11_d_162_16)">
<circle cx="77.5" cy="79.5" r="5.5" fill="#A38C68"/>
</g>
<g filter="url(#filter12_d_162_16)">
<circle cx="220.5" cy="79.5" r="5.5" fill="#7F6740"/>
</g>
<g filter="url(#filter13_d_162_16)">
<circle cx="52.5" cy="148.5" r="5.5" fill="#A38C68" fill-opacity="0.71" shape-rendering="crispEdges"/>
</g>
<rect x="135" y="274" width="31" height="24" rx="12" fill="#A38C68"/>
<rect x="227" y="245.92" width="31" height="24" rx="12" transform="rotate(-45 227 245.92)" fill="#A38C68"/>
<rect x="276" y="164" width="31" height="24" rx="12" transform="rotate(-90 276 164)" fill="#7B6749"/>
<rect x="253.92" y="75.8909" width="31" height="24" rx="12" transform="rotate(-135 253.92 75.8909)" fill="#7E6947"/>
<rect x="135" width="31" height="24" rx="12" fill="#A38C68"/>
<rect x="33" y="58.9203" width="31" height="24" rx="12" transform="rotate(-45 33 58.9203)" fill="#A38C68"/>
<rect y="164" width="31" height="24" rx="12" transform="rotate(-90 0 164)" fill="#A38C68"/>
<rect x="49.9706" y="226" width="31" height="24" rx="12" transform="rotate(45 49.9706 226)" fill="#A38C68"/>
<defs>
<filter id="filter0_d_162_16" x="65" y="66" width="171" height="173" filterUnits="userSpaceOnUse" color-interpolation-filters="sRGB">
<feFlood flood-opacity="0" result="BackgroundImageFix"/>
<feColorMatrix in="SourceAlpha" type="matrix" values="0 0 0 0 0 0 0 0 0 0 0 0 0 0 0 0 0 0 127 0" result="hardAlpha"/>
<feOffset dy="4"/>
<feGaussianBlur stdDeviation="2"/>
<feComposite in2="hardAlpha" operator="out"/>
<feColorMatrix type="matrix" values="0 0 0 0 0 0 0 0 0 0 0 0 0 0 0 0 0 0 0.25 0"/>
<feBlend mode="normal" in2="BackgroundImageFix" result="effect1_dropShadow_162_16"/>
<feBlend mode="normal" in="SourceGraphic" in2="effect1_dropShadow_162_16" result="shape"/>
</filter>
<filter id="filter1_i_162_16" x="88" y="85" width="125" height="131" filterUnits="userSpaceOnUse" color-interpolation-filters="sRGB">
<feFlood flood-opacity="0" result="BackgroundImageFix"/>
<feBlend mode="normal" in="SourceGraphic" in2="BackgroundImageFix" result="shape"/>
<feColorMatrix in="SourceAlpha" type="matrix" values="0 0 0 0 0 0 0 0 0 0 0 0 0 0 0 0 0 0 127 0" result="hardAlpha"/>
<feOffset dy="4"/>
<feGaussianBlur stdDeviation="2"/>
<feComposite in2="hardAlpha" operator="arithmetic" k2="-1" k3="1"/>
<feColorMatrix type="matrix" values="0 0 0 0 0 0 0 0 0 0 0 0 0 0 0 0 0 0 0.25 0"/>
<feBlend mode="normal" in2="shape" result="effect1_innerShadow_162_16"/>
</filter>
<filter id="filter2_d_162_16" x="128" y="130" width="45" height="45" filterUnits="userSpaceOnUse" color-interpolation-filters="sRGB">
<feFlood flood-opacity="0" result="BackgroundImageFix"/>
<feColorMatrix in="SourceAlpha" type="matrix" values="0 0 0 0 0 0 0 0 0 0 0 0 0 0 0 0 0 0 127 0" result="hardAlpha"/>
<feOffset dy="4"/>
<feGaussianBlur stdDeviation="2"/>
<feComposite in2="hardAlpha" operator="out"/>
<feColorMatrix type="matrix" values="0 0 0 0 0 0 0 0 0 0 0 0 0 0 0 0 0 0 0.25 0"/>
<feBlend mode="normal" in2="BackgroundImageFix" result="effect1_dropShadow_162_16"/>
<feBlend mode="normal" in="SourceGraphic" in2="effect1_dropShadow_162_16" result="shape"/>
</filter>
<filter id="filter3_d_162_16" x="65" y="66" width="171" height="173" filterUnits="userSpaceOnUse" color-interpolation-filters="sRGB">
<feFlood flood-opacity="0" result="BackgroundImageFix"/>
<feColorMatrix in="SourceAlpha" type="matrix" values="0 0 0 0 0 0 0 0 0 0 0 0 0 0 0 0 0 0 127 0" result="hardAlpha"/>
<feOffset dy="4"/>
<feGaussianBlur stdDeviation="2"/>
<feComposite in2="hardAlpha" operator="out"/>
<feColorMatrix type="matrix" values="0 0 0 0 0 0 0 0 0 0 0 0 0 0 0 0 0 0 0.25 0"/>
<feBlend mode="normal" in2="BackgroundImageFix" result="effect1_dropShadow_162_16"/>
<feBlend mode="normal" in="SourceGraphic" in2="effect1_dropShadow_162_16" result="shape"/>
</filter>
<filter id="filter4_f_162_16" x="127.763" y="132.396" width="40.6913" height="40.5192" filterUnits="userSpaceOnUse" color-interpolation-filters="sRGB">
<feFlood flood-opacity="0" result="BackgroundImageFix"/>
<feBlend mode="normal" in="SourceGraphic" in2="BackgroundImageFix" result="shape"/>
<feGaussianBlur stdDeviation="5" result="effect1_foregroundBlur_162_16"/>
</filter>
<filter id="filter5_f_162_16" x="62.3893" y="141" width="68.7465" height="89.3683" filterUnits="userSpaceOnUse" color-interpolation-filters="sRGB">
<feFlood flood-opacity="0" result="BackgroundImageFix"/>
<feBlend mode="normal" in="SourceGraphic" in2="BackgroundImageFix" result="shape"/>
<feGaussianBlur stdDeviation="5" result="effect1_foregroundBlur_162_16"/>
</filter>
<filter id="filter6_d_162_16" x="143" y="243" width="19" height="19" filterUnits="userSpaceOnUse" color-interpolation-filters="sRGB">
<feFlood flood-opacity="0" result="BackgroundImageFix"/>
<feColorMatrix in="SourceAlpha" type="matrix" values="0 0 0 0 0 0 0 0 0 0 0 0 0 0 0 0 0 0 127 0" result="hardAlpha"/>
<feOffset dy="4"/>
<feGaussianBlur stdDeviation="2"/>
<feComposite in2="hardAlpha" operator="out"/>
<feColorMatrix type="matrix" values="0 0 0 0 0 0 0 0 0 0 0 0 0 0 0 0 0 0 0.25 0"/>
<feBlend mode="normal" in2="BackgroundImageFix" result="effect1_dropShadow_162_16"/>
<feBlend mode="normal" in="SourceGraphic" in2="effect1_dropShadow_162_16" result="shape"/>
</filter>
<filter id="filter7_d_162_16" x="211" y="212" width="19" height="19" filterUnits="userSpaceOnUse" color-interpolation-filters="sRGB">
<feFlood flood-opacity="0" result="BackgroundImageFix"/>
<feColorMatrix in="SourceAlpha" type="matrix" values="0 0 0 0 0 0 0 0 0 0 0 0 0 0 0 0 0 0 127 0" result="hardAlpha"/>
<feOffset dy="4"/>
<feGaussianBlur stdDeviation="2"/>
<feComposite in2="hardAlpha" operator="out"/>
<feColorMatrix type="matrix" values="0 0 0 0 0 0 0 0 0 0 0 0 0 0 0 0 0 0 0.25 0"/>
<feBlend mode="normal" in2="BackgroundImageFix" result="effect1_dropShadow_162_16"/>
<feBlend mode="normal" in="SourceGraphic" in2="effect1_dropShadow_162_16" result="shape"/>
</filter>
<filter id="filter8_d_162_16" x="143" y="43" width="19" height="19" filterUnits="userSpaceOnUse" color-interpolation-filters="sRGB">
<feFlood flood-opacity="0" result="BackgroundImageFix"/>
<feColorMatrix in="SourceAlpha" type="matrix" values="0 0 0 0 0 0 0 0 0 0 0 0 0 0 0 0 0 0 127 0" result="hardAlpha"/>
<feOffset dy="4"/>
<feGaussianBlur stdDeviation="2"/>
<feComposite in2="hardAlpha" operator="out"/>
<feColorMatrix type="matrix" values="0 0 0 0 0 0 0 0 0 0 0 0 0 0 0 0 0 0 0.25 0"/>
<feBlend mode="normal" in2="BackgroundImageFix" result="effect1_dropShadow_162_16"/>
<feBlend mode="normal" in="SourceGraphic" in2="effect1_dropShadow_162_16" result="shape"/>
</filter>
<filter id="filter9_d_162_16" x="239" y="143" width="19" height="19" filterUnits="userSpaceOnUse" color-interpolation-filters="sRGB">
<feFlood flood-opacity="0" result="BackgroundImageFix"/>
<feColorMatrix in="SourceAlpha" type="matrix" values="0 0 0 0 0 0 0 0 0 0 0 0 0 0 0 0 0 0 127 0" result="hardAlpha"/>
<feOffset dy="4"/>
<feGaussianBlur stdDeviation="2"/>
<feComposite in2="hardAlpha" operator="out"/>
<feColorMatrix type="matrix" values="0 0 0 0 0 0 0 0 0 0 0 0 0 0 0 0 0 0 0.25 0"/>
<feBlend mode="normal" in2="BackgroundImageFix" result="effect1_dropShadow_162_16"/>
<feBlend mode="normal" in="SourceGraphic" in2="effect1_dropShadow_162_16" result="shape"/>
</filter>
<filter id="filter10_d_162_16" x="68" y="212" width="19" height="19" filterUnits="userSpaceOnUse" color-interpolation-filters="sRGB">
<feFlood flood-opacity="0" result="BackgroundImageFix"/>
<feColorMatrix in="SourceAlpha" type="matrix" values="0 0 0 0 0 0 0 0 0 0 0 0 0 0 0 0 0 0 127 0" result="hardAlpha"/>
<feOffset dy="4"/>
<feGaussianBlur stdDeviation="2"/>
<feComposite in2="hardAlpha" operator="out"/>
<feColorMatrix type="matrix" values="0 0 0 0 0 0 0 0 0 0 0 0 0 0 0 0 0 0 0.25 0"/>
<feBlend mode="normal" in2="BackgroundImageFix" result="effect1_dropShadow_162_16"/>
<feBlend mode="normal" in="SourceGraphic" in2="effect1_dropShadow_162_16" result="shape"/>
</filter>
<filter id="filter11_d_162_16" x="68" y="74" width="19" height="19" filterUnits="userSpaceOnUse" color-interpolation-filters="sRGB">
<feFlood flood-opacity="0" result="BackgroundImageFix"/>
<feColorMatrix in="SourceAlpha" type="matrix" values="0 0 0 0 0 0 0 0 0 0 0 0 0 0 0 0 0 0 127 0" result="hardAlpha"/>
<feOffset dy="4"/>
<feGaussianBlur stdDeviation="2"/>
<feComposite in2="hardAlpha" operator="out"/>
<feColorMatrix type="matrix" values="0 0 0 0 0 0 0 0 0 0 0 0 0 0 0 0 0 0 0.25 0"/>
<feBlend mode="normal" in2="BackgroundImageFix" result="effect1_dropShadow_162_16"/>
<feBlend mode="normal" in="SourceGraphic" in2="effect1_dropShadow_162_16" result="shape"/>
</filter>
<filter id="filter12_d_162_16" x="211" y="74" width="19" height="19" filterUnits="userSpaceOnUse" color-interpolation-filters="sRGB">
<feFlood flood-opacity="0" result="BackgroundImageFix"/>
<feColorMatrix in="SourceAlpha" type="matrix" values="0 0 0 0 0 0 0 0 0 0 0 0 0 0 0 0 0 0 127 0" result="hardAlpha"/>
<feOffset dy="4"/>
<feGaussianBlur stdDeviation="2"/>
<feComposite in2="hardAlpha" operator="out"/>
<feColorMatrix type="matrix" values="0 0 0 0 0 0 0 0 0 0 0 0 0 0 0 0 0 0 0.25 0"/>
<feBlend mode="normal" in2="BackgroundImageFix" result="effect1_dropShadow_162_16"/>
<feBlend mode="normal" in="SourceGraphic" in2="effect1_dropShadow_162_16" result="shape"/>
</filter>
<filter id="filter13_d_162_16" x="43" y="143" width="19" height="19" filterUnits="userSpaceOnUse" color-interpolation-filters="sRGB">
<feFlood flood-opacity="0" result="BackgroundImageFix"/>
<feColorMatrix in="SourceAlpha" type="matrix" values="0 0 0 0 0 0 0 0 0 0 0 0 0 0 0 0 0 0 127 0" result="hardAlpha"/>
<feOffset dy="4"/>
<feGaussianBlur stdDeviation="2"/>
<feComposite in2="hardAlpha" operator="out"/>
<feColorMatrix type="matrix" values="0 0 0 0 0 0 0 0 0 0 0 0 0 0 0 0 0 0 0.25 0"/>
<feBlend mode="normal" in2="BackgroundImageFix" result="effect1_dropShadow_162_16"/>
<feBlend mode="normal" in="SourceGraphic" in2="effect1_dropShadow_162_16" result="shape"/>
</filter>
<linearGradient id="paint0_linear_162_16" x1="92.5" y1="227" x2="241.5" y2="103" gradientUnits="userSpaceOnUse">
<stop stop-color="#CABE89"/>
<stop offset="1" stop-color="#8A7046"/>
</linearGradient>
<linearGradient id="paint1_linear_162_16" x1="117.5" y1="213.5" x2="211.5" y2="107.5" gradientUnits="userSpaceOnUse">
<stop stop-color="#E4C888"/>
<stop offset="1" stop-color="#2F2102"/>
</linearGradient>
</defs>
</svg>
