<svg width="20" height="27" viewBox="0 0 20 27" fill="none" xmlns="http://www.w3.org/2000/svg">
<g filter="url(#filter0_i_318_5)">
<path d="M16.5001 6C16.5001 27 27 27 10 27C-6.99998 27 3 27 3.5001 6C4.5 3 6.68632 0.5 10 0.5C13.3137 0.5 15.5 2.5 16.5001 6Z" fill="#723A3A"/>
</g>
<g filter="url(#filter1_d_318_5)">
<circle cx="7" cy="8" r="1" fill="#D9D9D9"/>
</g>
<g filter="url(#filter2_d_318_5)">
<circle cx="13" cy="8" r="1" fill="#D9D9D9"/>
</g>
<g filter="url(#filter3_d_318_5)">
<path d="M8 11.2425C8 10.6114 8.59313 10.1483 9.20544 10.3014L9.67337 10.4183C9.88782 10.472 10.1122 10.472 10.3266 10.4183L10.7946 10.3014C11.4069 10.1483 12 10.6114 12 11.2425C12 11.6877 11.697 12.0757 11.2652 12.1837L10.4851 12.3787C10.1666 12.4584 9.83341 12.4584 9.51493 12.3787L8.73485 12.1837C8.30297 12.0757 8 11.6877 8 11.2425Z" fill="#D9D9D9"/>
</g>
<defs>
<filter id="filter0_i_318_5" x="0.125854" y="0.5" width="19.5809" height="30.5" filterUnits="userSpaceOnUse" color-interpolation-filters="sRGB">
<feFlood flood-opacity="0" result="BackgroundImageFix"/>
<feBlend mode="normal" in="SourceGraphic" in2="BackgroundImageFix" result="shape"/>
<feColorMatrix in="SourceAlpha" type="matrix" values="0 0 0 0 0 0 0 0 0 0 0 0 0 0 0 0 0 0 127 0" result="hardAlpha"/>
<feOffset dy="4"/>
<feGaussianBlur stdDeviation="2"/>
<feComposite in2="hardAlpha" operator="arithmetic" k2="-1" k3="1"/>
<feColorMatrix type="matrix" values="0 0 0 0 0 0 0 0 0 0 0 0 0 0 0 0 0 0 0.25 0"/>
<feBlend mode="normal" in2="shape" result="effect1_innerShadow_318_5"/>
</filter>
<filter id="filter1_d_318_5" x="2" y="7" width="10" height="10" filterUnits="userSpaceOnUse" color-interpolation-filters="sRGB">
<feFlood flood-opacity="0" result="BackgroundImageFix"/>
<feColorMatrix in="SourceAlpha" type="matrix" values="0 0 0 0 0 0 0 0 0 0 0 0 0 0 0 0 0 0 127 0" result="hardAlpha"/>
<feOffset dy="4"/>
<feGaussianBlur stdDeviation="2"/>
<feComposite in2="hardAlpha" operator="out"/>
<feColorMatrix type="matrix" values="0 0 0 0 0 0 0 0 0 0 0 0 0 0 0 0 0 0 0.25 0"/>
<feBlend mode="normal" in2="BackgroundImageFix" result="effect1_dropShadow_318_5"/>
<feBlend mode="normal" in="SourceGraphic" in2="effect1_dropShadow_318_5" result="shape"/>
</filter>
<filter id="filter2_d_318_5" x="8" y="7" width="10" height="10" filterUnits="userSpaceOnUse" color-interpolation-filters="sRGB">
<feFlood flood-opacity="0" result="BackgroundImageFix"/>
<feColorMatrix in="SourceAlpha" type="matrix" values="0 0 0 0 0 0 0 0 0 0 0 0 0 0 0 0 0 0 127 0" result="hardAlpha"/>
<feOffset dy="4"/>
<feGaussianBlur stdDeviation="2"/>
<feComposite in2="hardAlpha" operator="out"/>
<feColorMatrix type="matrix" values="0 0 0 0 0 0 0 0 0 0 0 0 0 0 0 0 0 0 0.25 0"/>
<feBlend mode="normal" in2="BackgroundImageFix" result="effect1_dropShadow_318_5"/>
<feBlend mode="normal" in="SourceGraphic" in2="effect1_dropShadow_318_5" result="shape"/>
</filter>
<filter id="filter3_d_318_5" x="4" y="10.272" width="12" height="10.1665" filterUnits="userSpaceOnUse" color-interpolation-filters="sRGB">
<feFlood flood-opacity="0" result="BackgroundImageFix"/>
<feColorMatrix in="SourceAlpha" type="matrix" values="0 0 0 0 0 0 0 0 0 0 0 0 0 0 0 0 0 0 127 0" result="hardAlpha"/>
<feOffset dy="4"/>
<feGaussianBlur stdDeviation="2"/>
<feComposite in2="hardAlpha" operator="out"/>
<feColorMatrix type="matrix" values="0 0 0 0 0 0 0 0 0 0 0 0 0 0 0 0 0 0 0.25 0"/>
<feBlend mode="normal" in2="BackgroundImageFix" result="effect1_dropShadow_318_5"/>
<feBlend mode="normal" in="SourceGraphic" in2="effect1_dropShadow_318_5" result="shape"/>
</filter>
</defs>
</svg>
